# xmcd CD database file
# Generated: Mon Apr 15 18:59:33 2002 by KSCD
# 
# Track frame offsets:
#       152
#       15287
#       45957
#       64040
#       73712
#       91607
#       116455
#       140800
#       160135
#       178282
#       199815
#       214647
#
# Disc length: 3189 seconds
#
# Revision: 2
# Processed by: cddbd v1.4PL0 Copyright (c) Steve Scherf et al.
# Submitted via: Kscd 1.3.2
#
DISCID=9e0c730c
DTITLE=New Breed Jazz - Fat Jazzy Grooves Volumes 6 and 7
DYEAR=1900
DGENRE=
TTITLE0=Headshock - Land Of Jazz
TTITLE1=Jazz Not Jazz - We Dig
TTITLE2=Falcon - Oh My God
TTITLE3=Jazz Not Jazz - Jungle Funk
TTITLE4=C*Swing - Hoodlum
TTITLE5=Headshock - Lost (Blue Funk Mix)
TTITLE6=Headshock - Beebop Ta Hip Hop
TTITLE7=Ghetto Funk Quartet - The Big Swing
TTITLE8=Wet Ride - Workin
TTITLE9=Bread and Butter - Wind Me Up
TTITLE10=Universal Joint - Sharkbite
TTITLE11=Jazzadelic - A Better world
EXTD=
EXTT0=
EXTT1=
EXTT2=
EXTT3=
EXTT4=
EXTT5=
EXTT6=
EXTT7=
EXTT8=
EXTT9=
EXTT10=
EXTT11=
PLAYORDER=
